<svg xmlns="http://www.w3.org/2000/svg" viewBox="0 0 512 512" role="img" aria-labelledby="title desc">
  <title id="title">Made In Future logo</title>
  <desc id="desc">Three-line retro pixel wordmark reading Made In Future in white on black background.</desc>
  <rect width="512" height="512" fill="#000000"/>
  <g transform="translate(64 80)">
    <rect x="0" y="0" width="10" height="10" rx="2" ry="2" fill="white"/>
    <rect x="12" y="0" width="10" height="10" rx="2" ry="2" fill="white"/>
    <rect x="24" y="0" width="10" height="10" rx="2" ry="2" fill="white"/>
    <rect x="36" y="0" width="10" height="10" rx="2" ry="2" fill="white"/>
    <rect x="48" y="0" width="10" height="10" rx="2" ry="2" fill="white"/>
    <rect x="0" y="12" width="10" height="10" rx="2" ry="2" fill="white"/>
    <rect x="48" y="12" width="10" height="10" rx="2" ry="2" fill="white"/>
    <rect x="0" y="24" width="10" height="10" rx="2" ry="2" fill="white"/>
    <rect x="24" y="24" width="10" height="10" rx="2" ry="2" fill="white"/>
    <rect x="48" y="24" width="10" height="10" rx="2" ry="2" fill="white"/>
    <rect x="0" y="36" width="10" height="10" rx="2" ry="2" fill="white"/>
    <rect x="24" y="36" width="10" height="10" rx="2" ry="2" fill="white"/>
    <rect x="48" y="36" width="10" height="10" rx="2" ry="2" fill="white"/>
    <rect x="0" y="48" width="10" height="10" rx="2" ry="2" fill="white"/>
    <rect x="48" y="48" width="10" height="10" rx="2" ry="2" fill="white"/>
    <rect x="0" y="60" width="10" height="10" rx="2" ry="2" fill="white"/>
    <rect x="48" y="60" width="10" height="10" rx="2" ry="2" fill="white"/>
    <rect x="0" y="72" width="10" height="10" rx="2" ry="2" fill="white"/>
    <rect x="48" y="72" width="10" height="10" rx="2" ry="2" fill="white"/>
    <rect x="84" y="0" width="10" height="10" rx="2" ry="2" fill="white"/>
    <rect x="96" y="0" width="10" height="10" rx="2" ry="2" fill="white"/>
    <rect x="108" y="0" width="10" height="10" rx="2" ry="2" fill="white"/>
    <rect x="72" y="12" width="10" height="10" rx="2" ry="2" fill="white"/>
    <rect x="120" y="12" width="10" height="10" rx="2" ry="2" fill="white"/>
    <rect x="72" y="24" width="10" height="10" rx="2" ry="2" fill="white"/>
    <rect x="120" y="24" width="10" height="10" rx="2" ry="2" fill="white"/>
    <rect x="72" y="36" width="10" height="10" rx="2" ry="2" fill="white"/>
    <rect x="84" y="36" width="10" height="10" rx="2" ry="2" fill="white"/>
    <rect x="96" y="36" width="10" height="10" rx="2" ry="2" fill="white"/>
    <rect x="108" y="36" width="10" height="10" rx="2" ry="2" fill="white"/>
    <rect x="120" y="36" width="10" height="10" rx="2" ry="2" fill="white"/>
    <rect x="72" y="48" width="10" height="10" rx="2" ry="2" fill="white"/>
    <rect x="120" y="48" width="10" height="10" rx="2" ry="2" fill="white"/>
    <rect x="72" y="60" width="10" height="10" rx="2" ry="2" fill="white"/>
    <rect x="120" y="60" width="10" height="10" rx="2" ry="2" fill="white"/>
    <rect x="72" y="72" width="10" height="10" rx="2" ry="2" fill="white"/>
    <rect x="120" y="72" width="10" height="10" rx="2" ry="2" fill="white"/>
    <rect x="144" y="0" width="10" height="10" rx="2" ry="2" fill="white"/>
    <rect x="156" y="0" width="10" height="10" rx="2" ry="2" fill="white"/>
    <rect x="168" y="0" width="10" height="10" rx="2" ry="2" fill="white"/>
    <rect x="180" y="0" width="10" height="10" rx="2" ry="2" fill="white"/>
    <rect x="144" y="12" width="10" height="10" rx="2" ry="2" fill="white"/>
    <rect x="192" y="12" width="10" height="10" rx="2" ry="2" fill="white"/>
    <rect x="144" y="24" width="10" height="10" rx="2" ry="2" fill="white"/>
    <rect x="192" y="24" width="10" height="10" rx="2" ry="2" fill="white"/>
    <rect x="144" y="36" width="10" height="10" rx="2" ry="2" fill="white"/>
    <rect x="192" y="36" width="10" height="10" rx="2" ry="2" fill="white"/>
    <rect x="144" y="48" width="10" height="10" rx="2" ry="2" fill="white"/>
    <rect x="192" y="48" width="10" height="10" rx="2" ry="2" fill="white"/>
    <rect x="144" y="60" width="10" height="10" rx="2" ry="2" fill="white"/>
    <rect x="192" y="60" width="10" height="10" rx="2" ry="2" fill="white"/>
    <rect x="144" y="72" width="10" height="10" rx="2" ry="2" fill="white"/>
    <rect x="156" y="72" width="10" height="10" rx="2" ry="2" fill="white"/>
    <rect x="168" y="72" width="10" height="10" rx="2" ry="2" fill="white"/>
    <rect x="180" y="72" width="10" height="10" rx="2" ry="2" fill="white"/>
    <rect x="216" y="0" width="10" height="10" rx="2" ry="2" fill="white"/>
    <rect x="228" y="0" width="10" height="10" rx="2" ry="2" fill="white"/>
    <rect x="240" y="0" width="10" height="10" rx="2" ry="2" fill="white"/>
    <rect x="252" y="0" width="10" height="10" rx="2" ry="2" fill="white"/>
    <rect x="264" y="0" width="10" height="10" rx="2" ry="2" fill="white"/>
    <rect x="216" y="12" width="10" height="10" rx="2" ry="2" fill="white"/>
    <rect x="216" y="24" width="10" height="10" rx="2" ry="2" fill="white"/>
    <rect x="216" y="36" width="10" height="10" rx="2" ry="2" fill="white"/>
    <rect x="228" y="36" width="10" height="10" rx="2" ry="2" fill="white"/>
    <rect x="240" y="36" width="10" height="10" rx="2" ry="2" fill="white"/>
    <rect x="252" y="36" width="10" height="10" rx="2" ry="2" fill="white"/>
    <rect x="264" y="36" width="10" height="10" rx="2" ry="2" fill="white"/>
    <rect x="216" y="48" width="10" height="10" rx="2" ry="2" fill="white"/>
    <rect x="216" y="60" width="10" height="10" rx="2" ry="2" fill="white"/>
    <rect x="216" y="72" width="10" height="10" rx="2" ry="2" fill="white"/>
    <rect x="228" y="72" width="10" height="10" rx="2" ry="2" fill="white"/>
    <rect x="240" y="72" width="10" height="10" rx="2" ry="2" fill="white"/>
    <rect x="252" y="72" width="10" height="10" rx="2" ry="2" fill="white"/>
    <rect x="264" y="72" width="10" height="10" rx="2" ry="2" fill="white"/>
    <rect x="0" y="104" width="10" height="10" rx="2" ry="2" fill="white"/>
    <rect x="12" y="104" width="10" height="10" rx="2" ry="2" fill="white"/>
    <rect x="24" y="104" width="10" height="10" rx="2" ry="2" fill="white"/>
    <rect x="36" y="104" width="10" height="10" rx="2" ry="2" fill="white"/>
    <rect x="48" y="104" width="10" height="10" rx="2" ry="2" fill="white"/>
    <rect x="24" y="116" width="10" height="10" rx="2" ry="2" fill="white"/>
    <rect x="24" y="128" width="10" height="10" rx="2" ry="2" fill="white"/>
    <rect x="24" y="140" width="10" height="10" rx="2" ry="2" fill="white"/>
    <rect x="24" y="152" width="10" height="10" rx="2" ry="2" fill="white"/>
    <rect x="24" y="164" width="10" height="10" rx="2" ry="2" fill="white"/>
    <rect x="0" y="176" width="10" height="10" rx="2" ry="2" fill="white"/>
    <rect x="12" y="176" width="10" height="10" rx="2" ry="2" fill="white"/>
    <rect x="24" y="176" width="10" height="10" rx="2" ry="2" fill="white"/>
    <rect x="36" y="176" width="10" height="10" rx="2" ry="2" fill="white"/>
    <rect x="48" y="176" width="10" height="10" rx="2" ry="2" fill="white"/>
    <rect x="72" y="104" width="10" height="10" rx="2" ry="2" fill="white"/>
    <rect x="120" y="104" width="10" height="10" rx="2" ry="2" fill="white"/>
    <rect x="72" y="116" width="10" height="10" rx="2" ry="2" fill="white"/>
    <rect x="84" y="116" width="10" height="10" rx="2" ry="2" fill="white"/>
    <rect x="120" y="116" width="10" height="10" rx="2" ry="2" fill="white"/>
    <rect x="72" y="128" width="10" height="10" rx="2" ry="2" fill="white"/>
    <rect x="96" y="128" width="10" height="10" rx="2" ry="2" fill="white"/>
    <rect x="120" y="128" width="10" height="10" rx="2" ry="2" fill="white"/>
    <rect x="72" y="140" width="10" height="10" rx="2" ry="2" fill="white"/>
    <rect x="108" y="140" width="10" height="10" rx="2" ry="2" fill="white"/>
    <rect x="120" y="140" width="10" height="10" rx="2" ry="2" fill="white"/>
    <rect x="72" y="152" width="10" height="10" rx="2" ry="2" fill="white"/>
    <rect x="120" y="152" width="10" height="10" rx="2" ry="2" fill="white"/>
    <rect x="72" y="164" width="10" height="10" rx="2" ry="2" fill="white"/>
    <rect x="120" y="164" width="10" height="10" rx="2" ry="2" fill="white"/>
    <rect x="72" y="176" width="10" height="10" rx="2" ry="2" fill="white"/>
    <rect x="120" y="176" width="10" height="10" rx="2" ry="2" fill="white"/>
    <rect x="0" y="208" width="10" height="10" rx="2" ry="2" fill="white"/>
    <rect x="12" y="208" width="10" height="10" rx="2" ry="2" fill="white"/>
    <rect x="24" y="208" width="10" height="10" rx="2" ry="2" fill="white"/>
    <rect x="36" y="208" width="10" height="10" rx="2" ry="2" fill="white"/>
    <rect x="48" y="208" width="10" height="10" rx="2" ry="2" fill="white"/>
    <rect x="0" y="220" width="10" height="10" rx="2" ry="2" fill="white"/>
    <rect x="0" y="232" width="10" height="10" rx="2" ry="2" fill="white"/>
    <rect x="0" y="244" width="10" height="10" rx="2" ry="2" fill="white"/>
    <rect x="12" y="244" width="10" height="10" rx="2" ry="2" fill="white"/>
    <rect x="24" y="244" width="10" height="10" rx="2" ry="2" fill="white"/>
    <rect x="36" y="244" width="10" height="10" rx="2" ry="2" fill="white"/>
    <rect x="0" y="256" width="10" height="10" rx="2" ry="2" fill="white"/>
    <rect x="0" y="268" width="10" height="10" rx="2" ry="2" fill="white"/>
    <rect x="0" y="280" width="10" height="10" rx="2" ry="2" fill="white"/>
    <rect x="72" y="208" width="10" height="10" rx="2" ry="2" fill="white"/>
    <rect x="120" y="208" width="10" height="10" rx="2" ry="2" fill="white"/>
    <rect x="72" y="220" width="10" height="10" rx="2" ry="2" fill="white"/>
    <rect x="120" y="220" width="10" height="10" rx="2" ry="2" fill="white"/>
    <rect x="72" y="232" width="10" height="10" rx="2" ry="2" fill="white"/>
    <rect x="120" y="232" width="10" height="10" rx="2" ry="2" fill="white"/>
    <rect x="72" y="244" width="10" height="10" rx="2" ry="2" fill="white"/>
    <rect x="120" y="244" width="10" height="10" rx="2" ry="2" fill="white"/>
    <rect x="72" y="256" width="10" height="10" rx="2" ry="2" fill="white"/>
    <rect x="120" y="256" width="10" height="10" rx="2" ry="2" fill="white"/>
    <rect x="72" y="268" width="10" height="10" rx="2" ry="2" fill="white"/>
    <rect x="120" y="268" width="10" height="10" rx="2" ry="2" fill="white"/>
    <rect x="84" y="280" width="10" height="10" rx="2" ry="2" fill="white"/>
    <rect x="96" y="280" width="10" height="10" rx="2" ry="2" fill="white"/>
    <rect x="108" y="280" width="10" height="10" rx="2" ry="2" fill="white"/>
    <rect x="144" y="208" width="10" height="10" rx="2" ry="2" fill="white"/>
    <rect x="156" y="208" width="10" height="10" rx="2" ry="2" fill="white"/>
    <rect x="168" y="208" width="10" height="10" rx="2" ry="2" fill="white"/>
    <rect x="180" y="208" width="10" height="10" rx="2" ry="2" fill="white"/>
    <rect x="192" y="208" width="10" height="10" rx="2" ry="2" fill="white"/>
    <rect x="168" y="220" width="10" height="10" rx="2" ry="2" fill="white"/>
    <rect x="168" y="232" width="10" height="10" rx="2" ry="2" fill="white"/>
    <rect x="168" y="244" width="10" height="10" rx="2" ry="2" fill="white"/>
    <rect x="168" y="256" width="10" height="10" rx="2" ry="2" fill="white"/>
    <rect x="168" y="268" width="10" height="10" rx="2" ry="2" fill="white"/>
    <rect x="168" y="280" width="10" height="10" rx="2" ry="2" fill="white"/>
    <rect x="216" y="208" width="10" height="10" rx="2" ry="2" fill="white"/>
    <rect x="264" y="208" width="10" height="10" rx="2" ry="2" fill="white"/>
    <rect x="216" y="220" width="10" height="10" rx="2" ry="2" fill="white"/>
    <rect x="264" y="220" width="10" height="10" rx="2" ry="2" fill="white"/>
    <rect x="216" y="232" width="10" height="10" rx="2" ry="2" fill="white"/>
    <rect x="264" y="232" width="10" height="10" rx="2" ry="2" fill="white"/>
    <rect x="216" y="244" width="10" height="10" rx="2" ry="2" fill="white"/>
    <rect x="264" y="244" width="10" height="10" rx="2" ry="2" fill="white"/>
    <rect x="216" y="256" width="10" height="10" rx="2" ry="2" fill="white"/>
    <rect x="264" y="256" width="10" height="10" rx="2" ry="2" fill="white"/>
    <rect x="216" y="268" width="10" height="10" rx="2" ry="2" fill="white"/>
    <rect x="264" y="268" width="10" height="10" rx="2" ry="2" fill="white"/>
    <rect x="228" y="280" width="10" height="10" rx="2" ry="2" fill="white"/>
    <rect x="240" y="280" width="10" height="10" rx="2" ry="2" fill="white"/>
    <rect x="252" y="280" width="10" height="10" rx="2" ry="2" fill="white"/>
    <rect x="288" y="208" width="10" height="10" rx="2" ry="2" fill="white"/>
    <rect x="300" y="208" width="10" height="10" rx="2" ry="2" fill="white"/>
    <rect x="312" y="208" width="10" height="10" rx="2" ry="2" fill="white"/>
    <rect x="324" y="208" width="10" height="10" rx="2" ry="2" fill="white"/>
    <rect x="288" y="220" width="10" height="10" rx="2" ry="2" fill="white"/>
    <rect x="336" y="220" width="10" height="10" rx="2" ry="2" fill="white"/>
    <rect x="288" y="232" width="10" height="10" rx="2" ry="2" fill="white"/>
    <rect x="336" y="232" width="10" height="10" rx="2" ry="2" fill="white"/>
    <rect x="288" y="244" width="10" height="10" rx="2" ry="2" fill="white"/>
    <rect x="300" y="244" width="10" height="10" rx="2" ry="2" fill="white"/>
    <rect x="312" y="244" width="10" height="10" rx="2" ry="2" fill="white"/>
    <rect x="324" y="244" width="10" height="10" rx="2" ry="2" fill="white"/>
    <rect x="288" y="256" width="10" height="10" rx="2" ry="2" fill="white"/>
    <rect x="312" y="256" width="10" height="10" rx="2" ry="2" fill="white"/>
    <rect x="288" y="268" width="10" height="10" rx="2" ry="2" fill="white"/>
    <rect x="324" y="268" width="10" height="10" rx="2" ry="2" fill="white"/>
    <rect x="288" y="280" width="10" height="10" rx="2" ry="2" fill="white"/>
    <rect x="336" y="280" width="10" height="10" rx="2" ry="2" fill="white"/>
    <rect x="360" y="208" width="10" height="10" rx="2" ry="2" fill="white"/>
    <rect x="372" y="208" width="10" height="10" rx="2" ry="2" fill="white"/>
    <rect x="384" y="208" width="10" height="10" rx="2" ry="2" fill="white"/>
    <rect x="396" y="208" width="10" height="10" rx="2" ry="2" fill="white"/>
    <rect x="408" y="208" width="10" height="10" rx="2" ry="2" fill="white"/>
    <rect x="360" y="220" width="10" height="10" rx="2" ry="2" fill="white"/>
    <rect x="360" y="232" width="10" height="10" rx="2" ry="2" fill="white"/>
    <rect x="360" y="244" width="10" height="10" rx="2" ry="2" fill="white"/>
    <rect x="372" y="244" width="10" height="10" rx="2" ry="2" fill="white"/>
    <rect x="384" y="244" width="10" height="10" rx="2" ry="2" fill="white"/>
    <rect x="396" y="244" width="10" height="10" rx="2" ry="2" fill="white"/>
    <rect x="408" y="244" width="10" height="10" rx="2" ry="2" fill="white"/>
    <rect x="360" y="256" width="10" height="10" rx="2" ry="2" fill="white"/>
    <rect x="360" y="268" width="10" height="10" rx="2" ry="2" fill="white"/>
    <rect x="360" y="280" width="10" height="10" rx="2" ry="2" fill="white"/>
    <rect x="372" y="280" width="10" height="10" rx="2" ry="2" fill="white"/>
    <rect x="384" y="280" width="10" height="10" rx="2" ry="2" fill="white"/>
    <rect x="396" y="280" width="10" height="10" rx="2" ry="2" fill="white"/>
    <rect x="408" y="280" width="10" height="10" rx="2" ry="2" fill="white"/>
  </g>
</svg>
